<?xml version="1.0" encoding="utf-8"?>
<!-- Generator: Adobe Illustrator 16.0.0, SVG Export Plug-In . SVG Version: 6.00 Build 0)  -->
<!DOCTYPE svg PUBLIC "-//W3C//DTD SVG 1.1//EN" "http://www.w3.org/Graphics/SVG/1.1/DTD/svg11.dtd">
<svg version="1.1" id="Livello_1" xmlns="http://www.w3.org/2000/svg" xmlns:xlink="http://www.w3.org/1999/xlink" x="0px" y="0px"
	 width="117.167px" height="21px" viewBox="0 0 117.167 21" enable-background="new 0 0 117.167 21" xml:space="preserve">
<path fill="#3F2E55" d="M26.278,2.448c-4.803,0-8.697,3.894-8.697,8.696c0,4.801,3.894,8.695,8.697,8.695
	c4.803,0,8.697-3.896,8.697-8.695C34.975,6.342,31.081,2.448,26.278,2.448z M26.278,14.998c-2.129,0-3.855-1.725-3.855-3.854
	c0-2.129,1.726-3.854,3.855-3.854c2.128,0,3.855,1.726,3.855,3.854C30.133,13.271,28.406,14.998,26.278,14.998z"/>
<path fill="#3F2E55" d="M44.25,2.448c-4.803,0-8.696,3.894-8.696,8.696c0,4.801,3.894,8.695,8.696,8.695
	c4.803,0,8.698-3.896,8.698-8.695C52.948,6.342,49.053,2.448,44.25,2.448z M44.25,14.998c-2.128,0-3.854-1.725-3.854-3.854
	c0-2.129,1.726-3.854,3.854-3.854c2.13,0,3.855,1.726,3.855,3.854C48.105,13.271,46.38,14.998,44.25,14.998z"/>
<path fill="#3F2E55" d="M72.132,2.448c-4.803,0-8.697,3.894-8.697,8.696c0,4.801,3.895,8.695,8.697,8.695
	c4.804,0,8.697-3.896,8.697-8.695C80.83,6.342,76.936,2.448,72.132,2.448z M72.132,14.998c-2.127,0-3.854-1.725-3.854-3.854
	c0-2.129,1.728-3.854,3.854-3.854c2.129,0,3.854,1.726,3.854,3.854C75.988,13.271,74.262,14.998,72.132,14.998z"/>
<path fill="#3F2E55" d="M16.46,12.646c-1.106-0.746-2.607-0.455-3.356,0.646c-0.003,0.004-0.005,0.008-0.008,0.013
	c-0.008,0.014-0.016,0.025-0.025,0.038l-0.002-0.001c-0.696,1-1.854,1.654-3.165,1.654c-2.129,0-3.855-1.727-3.855-3.854
	c0-2.128,1.726-3.854,3.855-3.854c1.326,0,2.498,0.672,3.191,1.692c0.002,0.005,0.005,0.01,0.008,0.014
	c0.75,1.103,2.25,1.393,3.356,0.646c1.109-0.748,1.401-2.252,0.654-3.361c-0.005-0.008-0.011-0.015-0.017-0.023h0.001
	c-1.564-2.299-4.203-3.81-7.195-3.81c-4.802,0-8.696,3.894-8.696,8.695c0,4.801,3.894,8.695,8.696,8.695
	c2.983,0,5.615-1.501,7.182-3.788l-0.001-0.002c0.01-0.014,0.021-0.028,0.03-0.043C17.861,14.898,17.57,13.395,16.46,12.646z"/>
<path fill="#3F2E55" d="M114.415,2.449c-1.033,0-1.872,0.839-1.872,1.872s0.839,1.872,1.872,1.872c1.034,0,1.872-0.839,1.872-1.872
	S115.449,2.449,114.415,2.449z M114.415,5.151c-0.458,0-0.829-0.372-0.829-0.83s0.371-0.829,0.829-0.829
	c0.459,0,0.83,0.371,0.83,0.829S114.874,5.151,114.415,5.151z"/>
<path fill="#3F2E55" d="M112.301,4.645c-0.238-0.16-0.561-0.098-0.722,0.14c-0.001,0-0.001,0.001-0.002,0.002
	c-0.002,0.003-0.004,0.006-0.006,0.009l0,0c-0.15,0.215-0.399,0.355-0.682,0.355c-0.458,0-0.83-0.371-0.83-0.829
	c0-0.459,0.372-0.83,0.83-0.83c0.286,0,0.538,0.145,0.688,0.364c0,0.001,0.001,0.003,0.002,0.003
	c0.161,0.237,0.483,0.301,0.722,0.14c0.239-0.161,0.302-0.485,0.141-0.724c-0.001-0.002-0.002-0.003-0.004-0.005h0.001
	c-0.337-0.495-0.905-0.82-1.549-0.82c-1.034,0-1.872,0.838-1.872,1.872c0,1.033,0.838,1.871,1.872,1.871
	c0.642,0,1.209-0.322,1.546-0.815l0,0c0.002-0.003,0.004-0.006,0.006-0.009C112.603,5.13,112.541,4.806,112.301,4.645z"/>
<path fill="#3F2E55" d="M13.069,13.344l0.003,0.001c0.008-0.013,0.016-0.026,0.025-0.038C13.087,13.318,13.079,13.33,13.069,13.344z
	"/>
<path fill="#5D5D5D" d="M13.1,13.3c-0.001,0.001-0.003,0.003-0.004,0.007c0.003-0.006,0.005-0.01,0.008-0.013
	C13.103,13.296,13.101,13.297,13.1,13.3z"/>
<path fill="#5D5D5D" d="M13.104,8.996c-0.003-0.004-0.006-0.009-0.008-0.014c0,0.002,0.002,0.005,0.004,0.008
	C13.101,8.992,13.103,8.994,13.104,8.996z"/>
<path fill="none" d="M62.231,19.84c0.003,0,0.007,0.002,0.009,0.002c-0.005,0-0.009-0.002-0.013-0.002
	C62.229,19.84,62.23,19.84,62.231,19.84z"/>
<path fill="#3F2E55" d="M62.24,14.998c-0.004,0-0.009,0.002-0.013,0.002c0.001,0,0.002,0,0.003,0v-0.002
	c-2.125-0.004-3.846-1.729-3.846-3.854V4.869c0-0.486-0.143-0.938-0.389-1.316c-0.432-0.665-1.18-1.104-2.03-1.104
	c-1.337,0-2.422,1.084-2.422,2.421v6.274c0,4.801,3.889,8.689,8.688,8.694c0.003,0,0.007,0.002,0.009,0.002
	c-0.002,0-0.006-0.002-0.009-0.002c-0.001,0-0.002,0-0.003,0c0.004,0,0.009,0.002,0.014,0.002c1.336,0,2.42-1.084,2.42-2.422
	C64.662,16.084,63.578,14.998,62.24,14.998z"/>
<path fill="none" d="M90.119,2.449c0.004,0,0.006-0.001,0.01-0.001c-0.004,0-0.01,0.001-0.014,0.001
	C90.117,2.449,90.117,2.449,90.119,2.449z"/>
<path fill="#3F2E55" d="M90.128,7.289c-0.004,0-0.01,0-0.015,0c0,0,0.003,0,0.005,0l0,0c-2.125,0.006-3.846,1.729-3.846,3.855v6.273
	c0,0.486-0.145,0.938-0.391,1.314c-0.432,0.666-1.18,1.104-2.031,1.104c-1.337,0-2.421-1.084-2.421-2.421v-6.275
	c0-4.8,3.89-8.689,8.688-8.697c0.004,0,0.006,0,0.01,0c-0.004,0-0.008,0.001-0.01,0.001s-0.002,0-0.005,0
	c0.007,0,0.011-0.001,0.015-0.001c1.336,0,2.42,1.084,2.42,2.422C92.55,6.205,91.466,7.289,90.128,7.289z"/>
<path fill="#3F2E55" d="M96.903,13.311L96.903,13.311c-0.001-0.004-0.003-0.006-0.004-0.008
	C96.9,13.305,96.902,13.309,96.903,13.311z"/>
<path fill="#3F2E55" d="M103.289,13.3c0,0.001,0,0.003-0.002,0.003c0.002-0.002,0.004-0.004,0.006-0.008
	C103.291,13.297,103.291,13.299,103.289,13.3z"/>
<path fill="#3F2E55" d="M96.895,13.297c0.001,0.002,0.002,0.004,0.004,0.006c-0.001-0.002-0.001-0.002-0.001-0.003
	C96.896,13.299,96.896,13.299,96.895,13.297z"/>
<path fill="#3F2E55" d="M106.649,12.648c-0.073-0.054-0.149-0.098-0.228-0.139l-8.069-4.806c0.522-0.265,1.112-0.417,1.739-0.417
	c1.32,0,2.486,0.665,3.181,1.677l0.001-0.001c0.423,0.641,1.143,1.072,1.969,1.09c1.336,0.029,2.443-1.029,2.473-2.365
	c0.014-0.541-0.154-1.043-0.445-1.453c0.004,0.006,0.01,0.013,0.016,0.02l0.002-0.002c-1.563-2.297-4.201-3.806-7.191-3.806
	c-2.984,0-5.618,1.504-7.184,3.794l0.002,0.002c-0.011,0.013-0.021,0.023-0.029,0.037c-0.748,1.109-0.455,2.613,0.654,3.361
	c0.073,0.051,0.149,0.096,0.229,0.137l8.068,4.805c-0.523,0.267-1.115,0.415-1.742,0.415c-1.325,0-2.494-0.669-3.188-1.688h-0.001
	c0.001,0.002,0.002,0.004,0.002,0.006c-0.002-0.006-0.005-0.01-0.007-0.012c-0.002-0.005-0.002-0.005-0.004-0.007
	c-0.748-1.104-2.251-1.397-3.356-0.649c-1.109,0.748-1.402,2.25-0.654,3.359c0,0.001,0.002,0.006,0.005,0.008h-0.001
	c1.564,2.31,4.207,3.825,7.205,3.825c2.994,0,5.631-1.512,7.195-3.812c0.006-0.01,0.01-0.016,0.014-0.021
	c0.004-0.003,0.004-0.005,0.005-0.007c0.003-0.004,0.006-0.008,0.009-0.015l0,0C108.046,14.883,107.751,13.391,106.649,12.648z"/>
<path fill="#3F2E55" d="M109.079,5.572c0.069,0.068,0.104,0.148,0.104,0.243v0.036c0,0.095-0.034,0.176-0.104,0.243
	c-0.065,0.07-0.148,0.104-0.243,0.104h-0.062c-0.095,0-0.177-0.033-0.242-0.104c-0.069-0.067-0.104-0.148-0.104-0.243V5.814
	c0-0.093,0.034-0.175,0.104-0.243c0.067-0.069,0.147-0.102,0.242-0.102h0.062C108.93,5.47,109.013,5.503,109.079,5.572z"/>
<g id="Livello_2">
</g>
</svg>
